<svg width="1440" height="32" viewBox="0 0 1440 32" fill="none" xmlns="http://www.w3.org/2000/svg">
  <defs>
    <linearGradient id="bark" x1="0" y1="0" x2="1440" y2="0" gradientUnits="userSpaceOnUse">
      <stop offset="0" stop-color="#2A180F"/>
      <stop offset="0.5" stop-color="#3B2417"/>
      <stop offset="1" stop-color="#28170F"/>
    </linearGradient>
    <linearGradient id="vine" x1="0" y1="0" x2="1440" y2="0" gradientUnits="userSpaceOnUse">
      <stop offset="0" stop-color="#152A16"/>
      <stop offset="0.5" stop-color="#204223"/>
      <stop offset="1" stop-color="#142915"/>
    </linearGradient>
    <linearGradient id="leafDark" x1="0" y1="0" x2="1" y2="1">
      <stop offset="0" stop-color="#4C7A4B"/>
      <stop offset="1" stop-color="#224125"/>
    </linearGradient>
  </defs>

  <rect x="0" y="11" width="1440" height="10" rx="5" fill="url(#bark)"/>
  <path d="M0 13C25 13 35 4 55 4C75 4 84 14 104 14C125 14 133 5 154 5C176 5 186 15 208 15C230 15 238 5 260 5C282 5 293 15 315 15C338 15 348 4 372 4C396 4 406 14 430 14C454 14 463 4 488 4C512 4 522 14 548 14C574 14 584 4 610 4C636 4 646 14 672 14C699 14 709 4 736 4C763 4 774 14 801 14C829 14 839 4 867 4C895 4 906 14 934 14C962 14 973 4 1002 4C1031 4 1042 14 1071 14C1100 14 1111 4 1140 4C1169 4 1180 14 1210 14C1240 14 1251 4 1281 4C1311 4 1322 14 1353 14C1384 14 1396 6 1440 6" stroke="url(#vine)" stroke-width="2.6" stroke-linecap="round"/>
  <path d="M0 19C24 19 34 28 54 28C74 28 83 18 103 18C123 18 132 28 153 28C175 28 185 18 206 18C228 18 237 28 258 28C280 28 292 18 313 18C335 18 347 28 369 28C391 28 402 18 424 18C446 18 457 28 480 28C503 28 514 18 537 18C560 18 571 28 594 28C617 28 628 18 651 18C675 18 686 28 710 28C734 28 745 18 770 18C795 18 806 28 831 28C856 28 867 18 892 18C917 18 928 28 954 28C980 28 991 18 1017 18C1043 18 1055 28 1081 28C1107 28 1119 18 1145 18C1171 18 1183 28 1210 28C1237 28 1249 18 1276 18C1303 18 1315 28 1343 28C1371 28 1383 20 1440 20" stroke="url(#vine)" stroke-width="2.6" stroke-linecap="round"/>

  <g fill="url(#leafDark)" stroke="#0B1A0E" stroke-width="1.1">
    <path d="M68 10C62 7 58 3 57 -2C62 -1 68 1 73 5C77 8 79 11 80 15C76 15 72 13 68 10Z"/>
    <path d="M142 23C148 20 153 16 156 11C151 11 145 12 141 15C137 18 135 21 134 25C137 25 139 24 142 23Z"/>
    <path d="M247 10C241 7 237 3 236 -2C241 -1 247 1 251 5C255 8 257 11 258 15C254 15 251 13 247 10Z"/>
    <path d="M328 23C334 20 339 16 342 11C337 11 331 12 327 15C323 18 321 21 320 25C323 25 325 24 328 23Z"/>
    <path d="M451 10C445 7 441 3 440 -2C446 -1 451 1 456 5C460 8 462 11 463 15C459 15 455 13 451 10Z"/>
    <path d="M534 23C540 20 545 16 548 11C543 11 538 12 533 15C529 18 527 21 526 25C529 25 531 24 534 23Z"/>
    <path d="M654 10C648 7 644 3 643 -2C648 -1 654 1 658 5C662 8 664 11 665 15C661 15 658 13 654 10Z"/>
    <path d="M737 23C743 20 748 16 751 11C746 11 741 12 736 15C732 18 730 21 729 25C732 25 734 24 737 23Z"/>
    <path d="M858 10C852 7 848 3 847 -2C852 -1 858 1 862 5C866 8 868 11 869 15C865 15 862 13 858 10Z"/>
    <path d="M944 23C950 20 955 16 958 11C953 11 948 12 943 15C939 18 937 21 936 25C939 25 941 24 944 23Z"/>
    <path d="M1063 10C1057 7 1053 3 1052 -2C1057 -1 1063 1 1067 5C1071 8 1073 11 1074 15C1070 15 1067 13 1063 10Z"/>
    <path d="M1148 23C1154 20 1159 16 1162 11C1157 11 1152 12 1147 15C1143 18 1141 21 1140 25C1143 25 1145 24 1148 23Z"/>
    <path d="M1267 10C1261 7 1257 3 1256 -2C1261 -1 1267 1 1271 5C1275 8 1277 11 1278 15C1274 15 1271 13 1267 10Z"/>
    <path d="M1352 23C1358 20 1363 16 1366 11C1361 11 1356 12 1351 15C1347 18 1345 21 1344 25C1347 25 1349 24 1352 23Z"/>
  </g>
</svg>
