<svg width="280" height="56" viewBox="0 0 280 56" fill="none" xmlns="http://www.w3.org/2000/svg">
  <defs>
    <linearGradient id="vineStroke" x1="0" y1="0" x2="280" y2="0" gradientUnits="userSpaceOnUse">
      <stop offset="0" stop-color="#132513"/>
      <stop offset="0.5" stop-color="#1E3A1D"/>
      <stop offset="1" stop-color="#122313"/>
    </linearGradient>
    <radialGradient id="leafFill" cx="0" cy="0" r="1" gradientUnits="userSpaceOnUse" gradientTransform="translate(0 0) rotate(38) scale(28 20)">
      <stop offset="0" stop-color="#6C8A7F"/>
      <stop offset="0.55" stop-color="#4F7064"/>
      <stop offset="1" stop-color="#385448"/>
    </radialGradient>
    <filter id="softShadow" x="-20%" y="-40%" width="140%" height="200%">
      <feDropShadow dx="0" dy="1.2" stdDeviation="0.9" flood-color="#040806" flood-opacity="0.6"/>
    </filter>
  </defs>

  <g filter="url(#softShadow)">
    <path d="M-2 30C8 30 13 23 22 23C31 23 35 34 44 34C53 34 57 25 66 25C75 25 79 33 88 33C97 33 102 24 111 24C120 24 125 34 134 34C143 34 147 24 156 24C165 24 170 33 179 33C188 33 192 24 201 24C211 24 215 34 224 34C234 34 239 23 248 23C257 23 263 30 282 30" stroke="url(#vineStroke)" stroke-width="5.1" stroke-linecap="round"/>
    <path d="M-2 32C8 32 13 25 22 25C31 25 35 36 44 36C53 36 57 27 66 27C75 27 79 35 88 35C97 35 102 26 111 26C120 26 125 36 134 36C143 36 147 26 156 26C165 26 170 35 179 35C188 35 192 26 201 26C211 26 215 36 224 36C234 36 239 25 248 25C257 25 263 32 282 32" stroke="#2F572B" stroke-opacity="0.4" stroke-width="1.5" stroke-linecap="round"/>
  </g>

  <g stroke="#1E2D27" stroke-width="1.3" stroke-linecap="round">
    <path d="M18 23C14 19 11 14 10 9C14 10 18 12 21 16C24 19 25 22 26 25Z" fill="url(#leafFill)"/>
    <path d="M31 24C34 20 39 17 45 16C42 21 38 25 33 28C30 29 27 30 25 30Z" fill="url(#leafFill)"/>
    <path d="M51 34C47 31 44 27 43 23C47 24 50 26 53 29C56 31 57 34 58 36Z" fill="url(#leafFill)"/>
    <path d="M71 25C68 21 66 17 65 12C69 14 72 16 75 20C77 23 78 25 79 28Z" fill="url(#leafFill)"/>
    <path d="M93 33C97 29 102 26 108 26C105 30 102 34 97 37C94 39 91 39 88 39Z" fill="url(#leafFill)"/>
    <path d="M116 24C113 20 111 15 110 10C114 12 118 14 120 18C123 21 124 24 124 27Z" fill="url(#leafFill)"/>
    <path d="M139 34C136 30 135 26 135 22C139 24 142 27 145 30C147 33 148 35 148 38Z" fill="url(#leafFill)"/>
    <path d="M161 24C165 21 170 19 175 19C172 22 168 26 164 28C161 30 158 30 156 30Z" fill="url(#leafFill)"/>
    <path d="M184 33C180 30 177 26 176 22C180 23 183 25 186 28C189 31 190 33 191 35Z" fill="url(#leafFill)"/>
    <path d="M207 24C211 21 216 18 221 18C218 22 214 26 210 28C207 29 204 30 202 30Z" fill="url(#leafFill)"/>
    <path d="M229 34C226 30 225 26 225 22C229 24 232 27 234 30C236 32 237 35 237 38Z" fill="url(#leafFill)"/>
    <path d="M252 24C256 20 261 17 266 17C263 22 260 25 255 28C252 29 249 30 247 30Z" fill="url(#leafFill)"/>
  </g>
</svg>
